<svg width="480" height="57" viewBox="0 0 480 57" fill="none" xmlns="http://www.w3.org/2000/svg">
<rect width="480" height="57" fill="white"/>
<path d="M0.0400001 52V47.14L2.02 46.96C3.18 46.84 3.76 46.28 3.76 45.28V17.38L0.34 17.2V12.1H29.32V22.06L23.2 22.48V20.08C23.2 19.4 23.1 18.92 22.9 18.64C22.7 18.36 22.22 18.22 21.46 18.22H11.08V28.84H25.84V34.96H11.08V46.72L16.42 46.9V52H0.0400001ZM32.4981 52V47.14L34.4781 46.96C35.6381 46.84 36.2181 46.28 36.2181 45.28V17.38L32.7981 17.2V12.1H49.1781C53.8181 12.1 57.3781 12.96 59.8581 14.68C62.3381 16.4 63.5781 19.22 63.5781 23.14C63.5781 25.86 62.8581 28.1 61.4181 29.86C60.0181 31.62 58.3381 32.9 56.3781 33.7C57.8181 34.22 58.9581 35.44 59.7981 37.36L64.1181 46.78L67.5381 46.9V52H52.7181V47.14L54.4581 46.96C55.3781 46.84 55.8381 46.48 55.8381 45.88C55.8381 45.64 55.7581 45.36 55.5981 45.04L52.7781 39.04C52.3381 38.04 51.8381 37.34 51.2781 36.94C50.7581 36.5 49.9981 36.28 48.9981 36.28H43.5381V46.72L47.4381 46.9V52H32.4981ZM43.5381 30.58H48.7581C53.6781 30.58 56.1381 28.38 56.1381 23.98C56.1381 21.46 55.4781 19.82 54.1581 19.06C52.8781 18.3 50.7981 17.92 47.9181 17.92H43.5381V30.58ZM98.6767 52H70.1767V47.14L72.1567 46.96C73.3167 46.84 73.8967 46.28 73.8967 45.28V17.38L70.4767 17.2V12.1H97.9567V22.06L91.8367 22.48V20.08C91.8367 19.4 91.7367 18.92 91.5367 18.64C91.3367 18.36 90.8567 18.22 90.0967 18.22H81.2167V28.48H95.0767V34.6H81.2167V45.82H90.8767C91.5967 45.82 92.0567 45.68 92.2567 45.4C92.4567 45.08 92.5567 44.58 92.5567 43.9V40.9L98.6767 41.32V52ZM131.606 52H103.106V47.14L105.086 46.96C106.246 46.84 106.826 46.28 106.826 45.28V17.38L103.406 17.2V12.1H130.886V22.06L124.766 22.48V20.08C124.766 19.4 124.666 18.92 124.466 18.64C124.266 18.36 123.786 18.22 123.026 18.22H114.146V28.48H128.006V34.6H114.146V45.82H123.806C124.526 45.82 124.986 45.68 125.186 45.4C125.386 45.08 125.486 44.58 125.486 43.9V40.9L131.606 41.32V52ZM136.036 52V47.14L138.016 46.96C139.176 46.84 139.756 46.28 139.756 45.28V17.38L136.336 17.2V12.1H152.776C158.656 12.1 163.236 13.66 166.516 16.78C169.836 19.9 171.496 24.52 171.496 30.64C171.496 34.44 170.996 37.76 169.996 40.6C168.996 43.4 167.636 45.6 165.916 47.2C162.476 50.4 158.196 52 153.076 52H136.036ZM147.076 17.92V46.24H153.196C156.636 46.24 159.316 45 161.236 42.52C163.156 40.04 164.116 36.44 164.116 31.72C164.116 22.52 160.216 17.92 152.416 17.92H147.076ZM194.598 11.38C199.358 11.38 203.338 13.06 206.538 16.42C209.738 19.78 211.338 24.92 211.338 31.84C211.338 38.72 209.738 43.94 206.538 47.5C203.378 51.02 199.078 52.78 193.638 52.78C188.238 52.78 183.998 51.02 180.918 47.5C177.838 43.98 176.298 38.86 176.298 32.14C176.298 28.46 176.838 25.24 177.918 22.48C178.998 19.68 180.418 17.52 182.178 16C185.738 12.92 189.878 11.38 194.598 11.38ZM183.798 31.84C183.798 41.76 187.238 46.72 194.118 46.72C197.798 46.72 200.378 45.2 201.858 42.16C203.218 39.48 203.898 36.2 203.898 32.32C203.898 28.84 203.298 25.64 202.098 22.72C201.418 21.12 200.378 19.86 198.978 18.94C197.618 18.02 195.838 17.56 193.638 17.56C191.438 17.56 189.538 18.28 187.938 19.72C186.378 21.16 185.298 22.9 184.698 24.94C184.098 26.98 183.798 29.28 183.798 31.84ZM228.622 12.1L238.822 39.22H238.942L249.202 12.1H261.082V16.96L259.102 17.14C257.902 17.26 257.322 17.96 257.362 19.24L258.862 46.72L262.582 46.9V52H248.122V47.14L250.282 46.96C251.362 46.88 251.882 46.36 251.842 45.4L250.702 24.22H250.582L241.342 48.16H235.642L226.522 24.46H226.402L225.202 46.72L229.102 46.9V52H214.942V47.14L217.102 46.96C218.022 46.88 218.522 46.34 218.602 45.34L220.222 17.44L216.562 17.2V12.1H228.622Z" fill="#287CED"/>
<rect x="277" width="203" height="57" fill="#287CED"/>
<path d="M291.305 43.88H294.997V13.824H291.305V10.704H306.177V13.824H302.277V43.62H313.197V36.756H318.553V47H291.305V43.88ZM323.145 43.88H326.837V13.824H323.145V10.704H351.485V20.116H346.129V14.084H334.117V26.46H342.021V23.028H345.609V33.272H342.021V29.84H334.117V43.62H346.545V36.756H351.901V47H323.145V43.88ZM355.455 43.88H358.107L369.547 10.704H376.047L387.487 43.88H390.139V47H375.735V43.88H380.051L377.347 35.716H364.815L362.111 43.88H366.427V47H355.455V43.88ZM365.751 32.44H376.411L371.211 16.32H370.951L365.751 32.44ZM393.223 43.88H396.915V13.824H393.223V10.704H412.619C414.213 10.704 415.669 10.8947 416.987 11.276C418.304 11.6227 419.431 12.1773 420.367 12.94C421.337 13.7027 422.083 14.6733 422.603 15.852C423.123 17.0307 423.383 18.4173 423.383 20.012C423.383 22.508 422.637 24.5707 421.147 26.2C419.656 27.8293 417.732 28.8867 415.375 29.372L421.927 40.656C422.62 41.8693 423.348 42.7187 424.111 43.204C424.873 43.6547 425.844 43.88 427.023 43.88H427.335V47H422.915C421.771 47 420.765 46.9133 419.899 46.74C419.067 46.532 418.321 46.22 417.663 45.804C417.039 45.388 416.484 44.868 415.999 44.244C415.513 43.62 415.045 42.892 414.595 42.06L408.771 30.724H404.195V43.88H407.887V47H393.223V43.88ZM404.195 27.5H410.279C412.116 27.5 413.503 27.0493 414.439 26.148C415.409 25.2467 415.895 23.9467 415.895 22.248V19.336C415.895 17.6373 415.409 16.3373 414.439 15.436C413.503 14.5347 412.116 14.084 410.279 14.084H404.195V27.5ZM430.445 43.88H434.137V13.824H430.445V10.704H442.925L459.149 37.536H459.409V13.824H455.717V10.704H466.845V13.824H463.153V47H456.757L438.141 16.476H437.881V43.88H441.573V47H430.445V43.88Z" fill="white"/>
</svg>
