<svg width="738" height="238" viewBox="0 0 738 238" fill="none" xmlns="http://www.w3.org/2000/svg">
<rect width="738" height="238" fill="white"/>
<ellipse cx="59" cy="56.5" rx="49" ry="46.5" fill="#287CED"/>
<ellipse cx="133" cy="168" rx="48" ry="45" fill="#287CED"/>
<path d="M248.04 33.7582L248.429 87.077L235.575 87.1708L235.186 33.8519L248.04 33.7582ZM268.929 55.7988L269.001 65.6862L244.612 65.8641L244.54 55.9767L268.929 55.7988ZM270.854 33.5917L270.927 43.5158L244.451 43.7089L244.378 33.7849L270.854 33.5917ZM287.285 56.9833L287.503 86.792L275.162 86.8821L274.873 47.2591L286.408 47.1749L287.285 56.9833ZM298.93 46.7906L298.794 58.2543C298.305 58.2091 297.646 58.1528 296.815 58.0857C295.985 58.0185 295.288 57.9869 294.727 57.991C293.287 58.0015 292.043 58.1815 290.995 58.5309C289.972 58.8558 289.121 59.3503 288.443 60.0144C287.788 60.654 287.306 61.4632 286.996 62.4421C286.71 63.4207 286.584 64.5569 286.618 65.8507L284.373 64.4022C284.354 61.7411 284.592 59.3223 285.089 57.1458C285.61 54.9446 286.353 53.0471 287.318 51.4531C288.283 49.8347 289.458 48.5932 290.843 47.7285C292.229 46.8395 293.788 46.3887 295.521 46.376C296.131 46.3716 296.73 46.4038 297.316 46.4728C297.927 46.5416 298.465 46.6475 298.93 46.7906ZM321.931 87.2734C318.708 87.2969 315.824 86.8174 313.278 85.835C310.731 84.8281 308.573 83.44 306.802 81.6707C305.055 79.9011 303.71 77.8601 302.765 75.5476C301.845 73.2349 301.376 70.7847 301.357 68.1968L301.347 66.8053C301.325 63.9001 301.709 61.2117 302.496 58.74C303.284 56.244 304.464 54.0625 306.038 52.1955C307.611 50.3285 309.59 48.8736 311.975 47.8308C314.36 46.7635 317.139 46.2183 320.313 46.1952C323.121 46.1747 325.638 46.608 327.867 47.4951C330.095 48.3822 331.984 49.6624 333.534 51.3357C335.109 53.0088 336.308 55.0387 337.131 57.4254C337.979 59.8118 338.413 62.4943 338.435 65.4727L338.472 70.4897L306.099 70.7258L306.043 62.9989L326.367 62.8507L326.36 61.8986C326.375 60.5801 326.135 59.4587 325.64 58.5346C325.169 57.6103 324.481 56.9073 323.574 56.4256C322.667 55.9439 321.566 55.7078 320.273 55.7172C318.93 55.727 317.821 56.0281 316.947 56.6204C316.096 57.2126 315.431 58.0231 314.95 59.052C314.494 60.0564 314.172 61.2184 313.987 62.5382C313.801 63.8579 313.714 65.2502 313.724 66.715L313.734 68.1066C313.745 69.5714 313.95 70.9005 314.349 72.0939C314.773 73.2871 315.367 74.3082 316.13 75.1571C316.917 75.9815 317.849 76.6217 318.927 77.0777C320.029 77.5335 321.276 77.7564 322.667 77.7462C324.352 77.734 326.01 77.4045 327.641 76.7578C329.272 76.1111 330.668 75.0511 331.829 73.5777L337.48 80.2017C336.683 81.355 335.544 82.4742 334.062 83.5593C332.605 84.6442 330.854 85.5359 328.808 86.2344C326.762 86.9085 324.47 87.2548 321.931 87.2734ZM362.799 86.9753C359.576 86.9988 356.692 86.5193 354.146 85.5369C351.599 84.53 349.441 83.1419 347.67 81.3726C345.924 79.603 344.578 77.562 343.633 75.2495C342.713 72.9368 342.244 70.4866 342.225 67.8987L342.215 66.5072C342.193 63.602 342.577 60.9136 343.364 58.4419C344.152 55.9459 345.332 53.7644 346.906 51.8974C348.479 50.0304 350.458 48.5755 352.843 47.5327C355.228 46.4654 358.007 45.9202 361.181 45.8971C363.989 45.8766 366.506 46.3099 368.735 47.197C370.963 48.0841 372.852 49.3643 374.402 51.0376C375.977 52.7107 377.176 54.7406 377.999 57.1273C378.847 59.5137 379.281 62.1962 379.303 65.1746L379.34 70.1916L346.967 70.4277L346.911 62.7008L367.235 62.5526L367.228 61.6005C367.243 60.282 367.003 59.1606 366.508 58.2365C366.037 57.3122 365.349 56.6092 364.442 56.1275C363.535 55.6458 362.435 55.4097 361.141 55.4191C359.798 55.4289 358.689 55.73 357.815 56.3223C356.964 56.9145 356.299 57.725 355.818 58.7539C355.362 59.7583 355.04 60.9203 354.855 62.2401C354.669 63.5598 354.582 64.9521 354.592 66.4169L354.602 67.8085C354.613 69.2733 354.818 70.6024 355.217 71.7958C355.641 72.989 356.235 74.0101 356.998 74.859C357.785 75.6834 358.717 76.3236 359.795 76.7796C360.897 77.2354 362.144 77.4583 363.535 77.4481C365.22 77.4359 366.878 77.1064 368.509 76.4597C370.14 75.813 371.536 74.753 372.697 73.2796L378.348 79.9036C377.551 81.0569 376.412 82.1761 374.93 83.2612C373.474 84.3461 371.722 85.2378 369.676 85.9363C367.631 86.6104 365.338 86.9567 362.799 86.9753ZM407.184 76.8368L406.84 29.6701L419.254 29.5795L419.665 85.828L408.532 85.9092L407.184 76.8368ZM382.794 66.7605L382.788 65.9915C382.766 62.9886 383.076 60.2519 383.717 57.7814C384.358 55.2864 385.319 53.1431 386.6 51.3515C387.881 49.5354 389.482 48.1321 391.403 47.1415C393.325 46.1509 395.543 45.6464 398.057 45.6281C400.304 45.6117 402.273 46.1223 403.965 47.1598C405.657 48.1728 407.108 49.6027 408.318 51.4494C409.527 53.2961 410.52 55.4618 411.295 57.9464C412.069 60.4067 412.663 63.0635 413.074 65.9171L413.081 66.8326C412.71 69.5209 412.154 72.0641 411.415 74.4621C410.676 76.8357 409.714 78.9424 408.531 80.7821C407.349 82.6219 405.906 84.0729 404.205 85.1351C402.528 86.1727 400.554 86.6999 398.284 86.7164C395.769 86.7348 393.544 86.2505 391.608 85.2636C389.697 84.2765 388.087 82.8844 386.78 81.0873C385.498 79.29 384.518 77.173 383.841 74.7365C383.164 72.3 382.815 69.6413 382.794 66.7605ZM395.129 65.9015L395.135 66.6705C395.146 68.1597 395.253 69.5384 395.458 70.8064C395.662 72.0745 396 73.1951 396.471 74.1683C396.966 75.1168 397.607 75.8568 398.392 76.3882C399.201 76.9194 400.192 77.1808 401.364 77.1722C402.951 77.1606 404.254 76.7727 405.274 76.0084C406.318 75.2439 407.079 74.1641 407.557 72.769C408.06 71.3737 408.268 69.7364 408.181 67.8571L408.16 64.9641C408.197 63.3525 408.077 61.9373 407.799 60.7186C407.522 59.4755 407.087 58.441 406.495 57.6152C405.927 56.7893 405.202 56.172 404.321 55.7634C403.463 55.3301 402.448 55.1178 401.276 55.1264C400.129 55.1347 399.154 55.4104 398.353 55.9534C397.575 56.4962 396.946 57.2576 396.465 58.2377C395.984 59.1934 395.638 60.3312 395.428 61.6511C395.217 62.9466 395.118 64.3634 395.129 65.9015ZM424.98 66.3796L424.974 65.6105C424.953 62.7053 425.348 60.029 426.161 57.5816C426.973 55.1098 428.178 52.9648 429.776 51.1464C431.374 49.3281 433.353 47.9098 435.714 46.8916C438.075 45.8489 440.805 45.3163 443.906 45.2937C447.031 45.2709 449.781 45.7635 452.157 46.7716C454.556 47.7551 456.569 49.1443 458.193 50.9391C459.818 52.734 461.054 54.8612 461.902 57.3209C462.75 59.7562 463.184 62.4265 463.205 65.3317L463.211 66.1007C463.232 68.9815 462.836 71.6578 462.024 74.1296C461.212 76.577 460.007 78.722 458.409 80.5648C456.811 82.3832 454.832 83.8014 452.471 84.8197C450.11 85.8379 447.379 86.3583 444.279 86.3809C441.178 86.4035 438.428 85.9231 436.028 84.9396C433.629 83.9561 431.616 82.5669 429.992 80.7721C428.367 78.9528 427.131 76.8256 426.283 74.3903C425.435 71.9306 425.001 69.2603 424.98 66.3796ZM437.315 65.5205L437.321 66.2895C437.331 67.7788 437.451 69.1695 437.681 70.4618C437.91 71.7541 438.284 72.8867 438.804 73.8595C439.324 74.8079 440.025 75.5474 440.908 76.0781C441.79 76.6088 442.891 76.8693 444.209 76.8597C445.503 76.8503 446.576 76.5739 447.426 76.0305C448.301 75.487 448.991 74.7373 449.497 73.7815C450.003 72.8012 450.361 71.6633 450.571 70.3678C450.781 69.0723 450.881 67.6799 450.87 66.1907L450.864 65.4217C450.854 63.9813 450.734 62.6271 450.505 61.3593C450.276 60.0669 449.902 58.9344 449.382 57.9616C448.862 56.9644 448.16 56.1882 447.277 55.6331C446.394 55.078 445.294 54.8053 443.975 54.8149C442.681 54.8243 441.597 55.113 440.722 55.6809C439.872 56.2487 439.194 57.0349 438.689 58.0396C438.183 59.0199 437.825 60.1578 437.615 61.4533C437.404 62.7244 437.304 64.0801 437.315 65.5205ZM481.069 54.1415L481.296 85.3785L468.955 85.4685L468.666 45.8455L480.238 45.7611L481.069 54.1415ZM479.641 64.223L476.821 64.3168C476.801 61.5337 477.112 58.9679 477.754 56.6194C478.396 54.2709 479.358 52.2252 480.639 50.4824C481.92 48.7396 483.497 47.3853 485.37 46.4195C487.268 45.4535 489.461 44.9614 491.951 44.9432C493.685 44.9306 495.261 45.1876 496.681 45.7144C498.101 46.2168 499.328 47.0257 500.361 48.1412C501.395 49.2324 502.186 50.6671 502.736 52.4453C503.311 54.199 503.607 56.3087 503.625 58.7745L503.818 85.2142L491.477 85.3042L491.295 60.4391C491.283 58.7546 491.079 57.4865 490.682 56.6349C490.309 55.7831 489.768 55.2133 489.058 54.9255C488.348 54.6377 487.48 54.4976 486.455 54.5051C485.38 54.5129 484.418 54.7641 483.567 55.2586C482.716 55.7531 481.989 56.442 481.385 57.3253C480.805 58.1841 480.361 59.2005 480.052 60.3747C479.768 61.5486 479.63 62.8314 479.641 64.223ZM502.272 64.0579L498.83 64.1563C498.81 61.3731 499.096 58.8075 499.689 56.4594C500.307 54.111 501.232 52.0657 502.465 50.3232C503.721 48.5806 505.286 47.2264 507.159 46.2606C509.032 45.2947 511.214 44.8027 513.704 44.7846C515.51 44.7714 517.172 45.0278 518.69 45.5539C520.208 46.0799 521.52 46.9371 522.627 48.1253C523.735 49.3136 524.601 50.8942 525.225 52.8672C525.85 54.8159 526.173 57.2306 526.194 60.1113L526.376 85.0496L513.998 85.1399L513.816 60.2016C513.804 58.5659 513.6 57.3345 513.203 56.5073C512.831 55.6555 512.29 55.0857 511.58 54.7979C510.869 54.4857 510.026 54.3331 509.049 54.3402C507.877 54.3488 506.866 54.6003 506.015 55.0948C505.164 55.5893 504.449 56.2781 503.87 57.1613C503.314 58.0199 502.907 59.0361 502.647 60.2099C502.387 61.3837 502.262 62.6663 502.272 64.0579ZM587.862 74.7132L587.934 84.6006L560.982 84.7972L560.91 74.9098L587.862 74.7132ZM565.17 31.4449L565.559 84.7638L552.706 84.8576L552.317 31.5387L565.17 31.4449ZM611.962 85.1578C608.74 85.1813 605.855 84.7018 603.309 83.7194C600.763 82.7126 598.604 81.3245 596.833 79.5551C595.087 77.7856 593.741 75.7446 592.797 73.432C591.877 71.1194 591.407 68.6691 591.388 66.0813L591.378 64.6897C591.357 61.7845 591.74 59.0961 592.528 56.6245C593.315 54.1284 594.496 51.9469 596.069 50.0799C597.642 48.2129 599.621 46.758 602.006 45.7152C604.391 44.648 607.171 44.1028 610.344 44.0796C613.152 44.0592 615.67 44.4925 617.898 45.3796C620.126 46.2667 622.015 47.5468 623.566 49.2202C625.141 50.8933 626.339 52.9232 627.163 55.3098C628.01 57.6963 628.445 60.3787 628.466 63.3572L628.503 68.3741L596.131 68.6102L596.074 60.8834L616.399 60.7351L616.392 59.783C616.406 58.4645 616.166 57.3432 615.671 56.419C615.201 55.4947 614.512 54.7917 613.605 54.31C612.698 53.8284 611.598 53.5922 610.304 53.6017C608.961 53.6115 607.853 53.9125 606.978 54.5049C606.128 55.097 605.462 55.9076 604.981 56.9365C604.525 57.9408 604.204 59.1029 604.018 60.4226C603.832 61.7424 603.745 63.1346 603.756 64.5994L603.766 65.991C603.776 67.4558 603.981 68.7849 604.381 69.9783C604.804 71.1716 605.398 72.1926 606.161 73.0416C606.948 73.8659 607.881 74.5061 608.958 74.9622C610.06 75.418 611.307 75.6408 612.699 75.6307C614.383 75.6184 616.041 75.2889 617.672 74.6422C619.303 73.9956 620.699 72.9355 621.86 71.4622L627.512 78.0862C626.714 79.2395 625.575 80.3587 624.094 81.4437C622.637 82.5286 620.885 83.4203 618.84 84.1188C616.794 84.793 614.501 85.1393 611.962 85.1578ZM654.144 74.1565L654.025 57.8239C654.017 56.7009 653.851 55.7377 653.528 54.9344C653.204 54.1311 652.699 53.5122 652.013 53.0777C651.326 52.6188 650.408 52.3936 649.261 52.402C648.333 52.4087 647.541 52.5732 646.884 52.8954C646.227 53.2176 645.73 53.6973 645.393 54.3345C645.056 54.9718 644.891 55.7787 644.898 56.7552L632.557 56.8452C632.544 55.0142 632.934 53.3145 633.729 51.7462C634.547 50.1533 635.709 48.7654 637.214 47.5825C638.743 46.3994 640.568 45.4828 642.687 44.8325C644.831 44.1577 647.221 43.8107 649.857 43.7914C653.007 43.7685 655.818 44.2729 658.292 45.3047C660.789 46.3363 662.766 47.8966 664.222 49.9856C665.677 52.0503 666.417 54.6573 666.44 57.8066L666.558 74.0293C666.577 76.6171 666.738 78.5813 667.04 79.9219C667.343 81.2381 667.766 82.3947 668.311 83.3918L668.315 84.0143L655.938 84.1046C655.343 82.8882 654.893 81.4022 654.587 79.6466C654.305 77.8663 654.158 76.0363 654.144 74.1565ZM655.541 59.9003L655.663 66.4914L650.206 66.5312C649.059 66.5396 648.084 66.7054 647.28 67.0286C646.501 67.3517 645.87 67.7958 645.386 68.3608C644.926 68.9013 644.588 69.5141 644.374 70.1993C644.183 70.8843 644.091 71.6052 644.096 72.362C644.102 73.0944 644.277 73.7524 644.624 74.3358C644.994 74.8946 645.485 75.3305 646.098 75.6434C646.711 75.9563 647.395 76.11 648.152 76.1045C649.519 76.0946 650.677 75.8298 651.625 75.3101C652.598 74.7659 653.338 74.1135 653.845 73.353C654.352 72.5924 654.603 71.8826 654.599 71.2234L657.345 76.2572C656.864 77.2373 656.31 78.2301 655.683 79.2357C655.079 80.2411 654.317 81.1744 653.396 82.0357C652.499 82.8723 651.393 83.564 650.078 84.1107C648.764 84.633 647.166 84.901 645.287 84.9147C642.845 84.9325 640.596 84.4484 638.538 83.4624C636.504 82.4763 634.87 81.0966 633.637 79.3233C632.403 77.5256 631.777 75.4549 631.76 73.1112C631.745 71.0605 632.098 69.2268 632.819 67.6102C633.564 65.9934 634.689 64.6179 636.195 63.4839C637.7 62.3498 639.622 61.4813 641.962 60.8783C644.301 60.2753 647.058 59.9622 650.232 59.939L655.541 59.9003ZM685.712 54.077L685.93 83.8858L673.589 83.9758L673.3 44.3529L684.835 44.2687L685.712 54.077ZM697.357 43.8844L697.221 55.3481C696.732 55.3029 696.073 55.2466 695.242 55.1794C694.411 55.1123 693.715 55.0807 693.154 55.0848C691.713 55.0953 690.47 55.2753 689.422 55.6247C688.399 55.9496 687.548 56.4441 686.87 57.1082C686.215 57.7478 685.733 58.557 685.422 59.5358C685.137 60.5145 685.011 61.6507 685.044 62.9445L682.8 61.4959C682.781 58.8349 683.019 56.4161 683.516 54.2396C684.037 52.0384 684.78 50.1409 685.745 48.5469C686.71 46.9285 687.885 45.687 689.27 44.8223C690.655 43.9333 692.215 43.4825 693.948 43.4698C694.558 43.4654 695.157 43.4976 695.743 43.5666C696.354 43.6354 696.892 43.7413 697.357 43.8844ZM713.79 52.5172L714.017 83.6809L701.676 83.771L701.387 44.148L712.959 44.0636L713.79 52.5172ZM712.398 62.5252L709.506 62.6195C709.484 59.5923 709.83 56.8919 710.545 54.5185C711.26 52.1206 712.283 50.0867 713.614 48.4168C714.944 46.7469 716.534 45.478 718.383 44.61C720.257 43.7174 722.341 43.2627 724.636 43.246C726.467 43.2326 728.141 43.489 729.659 44.015C731.201 44.5409 732.525 45.398 733.632 46.5862C734.764 47.7743 735.63 49.3549 736.231 51.3281C736.855 53.2767 737.178 55.6914 737.199 58.5722L737.381 83.5105L724.967 83.6011L724.785 58.6262C724.773 57.0393 724.544 55.8324 724.099 55.0056C723.653 54.1543 723.014 53.573 722.182 53.2617C721.349 52.9504 720.335 52.7991 719.139 52.8078C717.869 52.8171 716.797 53.069 715.922 53.5637C715.046 54.0584 714.343 54.7471 713.813 55.6299C713.306 56.4881 712.935 57.5041 712.7 58.6777C712.488 59.8511 712.388 61.1336 712.398 62.5252Z" fill="#104CC8"/>
<line x1="207" x2="207" y2="238" stroke="black" stroke-width="10"/>
<path d="M265.79 129.135C265.625 129.405 265.453 129.607 265.273 129.742C265.093 129.862 264.868 129.922 264.598 129.922C264.313 129.922 263.99 129.802 263.63 129.562C263.285 129.322 262.85 129.06 262.325 128.775C261.815 128.475 261.208 128.205 260.503 127.965C259.798 127.71 258.958 127.582 257.983 127.582C257.083 127.582 256.288 127.695 255.598 127.92C254.923 128.145 254.353 128.46 253.888 128.865C253.423 129.27 253.07 129.75 252.83 130.305C252.605 130.845 252.493 131.437 252.493 132.082C252.493 132.907 252.71 133.597 253.145 134.152C253.58 134.692 254.15 135.157 254.855 135.547C255.575 135.937 256.393 136.282 257.308 136.582C258.223 136.867 259.153 137.175 260.098 137.505C261.058 137.835 261.995 138.21 262.91 138.63C263.825 139.05 264.635 139.582 265.34 140.227C266.06 140.872 266.638 141.66 267.073 142.59C267.508 143.52 267.725 144.652 267.725 145.987C267.725 147.427 267.478 148.777 266.983 150.037C266.488 151.297 265.768 152.4 264.823 153.345C263.893 154.275 262.738 155.01 261.358 155.55C259.993 156.09 258.433 156.36 256.678 156.36C255.643 156.36 254.63 156.255 253.64 156.045C252.665 155.85 251.728 155.572 250.828 155.212C249.943 154.837 249.11 154.387 248.33 153.862C247.55 153.337 246.853 152.752 246.238 152.107L247.768 149.587C247.903 149.377 248.075 149.212 248.285 149.092C248.495 148.972 248.728 148.912 248.983 148.912C249.328 148.912 249.71 149.077 250.13 149.407C250.55 149.722 251.053 150.075 251.638 150.465C252.238 150.84 252.958 151.192 253.798 151.522C254.638 151.837 255.643 151.995 256.813 151.995C258.718 151.995 260.188 151.53 261.223 150.6C262.273 149.67 262.798 148.387 262.798 146.752C262.798 145.837 262.58 145.095 262.145 144.525C261.71 143.94 261.133 143.452 260.413 143.062C259.708 142.672 258.898 142.342 257.983 142.072C257.068 141.802 256.138 141.517 255.193 141.217C254.248 140.902 253.318 140.542 252.403 140.137C251.488 139.717 250.67 139.177 249.95 138.517C249.245 137.842 248.675 137.017 248.24 136.042C247.805 135.052 247.588 133.822 247.588 132.353C247.588 131.182 247.813 130.05 248.263 128.955C248.728 127.86 249.395 126.892 250.265 126.052C251.15 125.197 252.238 124.515 253.528 124.005C254.818 123.495 256.288 123.24 257.938 123.24C259.798 123.24 261.5 123.532 263.045 124.117C264.605 124.702 265.948 125.535 267.073 126.615L265.79 129.135ZM278.86 156.36C276.955 156.36 275.485 155.827 274.45 154.762C273.43 153.682 272.92 152.167 272.92 150.218V136.852H270.4C270.13 136.852 269.897 136.77 269.702 136.605C269.507 136.425 269.41 136.162 269.41 135.817V133.86L273.122 133.32L274.18 126.682C274.255 126.427 274.382 126.225 274.562 126.075C274.742 125.91 274.982 125.827 275.282 125.827H277.757V133.365H284.125V136.852H277.757V149.88C277.757 150.705 277.96 151.335 278.365 151.77C278.77 152.205 279.31 152.422 279.985 152.422C280.36 152.422 280.682 152.377 280.952 152.287C281.222 152.182 281.455 152.077 281.65 151.972C281.845 151.852 282.01 151.747 282.145 151.657C282.295 151.552 282.437 151.5 282.572 151.5C282.842 151.5 283.06 151.65 283.225 151.95L284.665 154.312C283.915 154.972 283.03 155.482 282.01 155.842C280.99 156.188 279.94 156.36 278.86 156.36ZM300.2 145.965C298.475 146.025 297.02 146.167 295.835 146.392C294.65 146.602 293.69 146.88 292.955 147.225C292.22 147.555 291.688 147.952 291.358 148.417C291.043 148.882 290.885 149.392 290.885 149.947C290.885 150.487 290.968 150.952 291.133 151.342C291.313 151.717 291.553 152.032 291.853 152.287C292.168 152.527 292.528 152.707 292.933 152.827C293.353 152.932 293.81 152.985 294.305 152.985C295.565 152.985 296.645 152.752 297.545 152.287C298.46 151.807 299.345 151.117 300.2 150.218V145.965ZM287.375 136.245C289.97 133.83 293.06 132.622 296.645 132.622C297.965 132.622 299.135 132.84 300.155 133.275C301.19 133.695 302.053 134.295 302.743 135.075C303.448 135.855 303.98 136.785 304.34 137.865C304.715 138.93 304.903 140.115 304.903 141.42V156H302.743C302.278 156 301.925 155.932 301.685 155.797C301.445 155.647 301.243 155.355 301.078 154.92L300.605 153.052C300.02 153.577 299.443 154.05 298.873 154.47C298.303 154.875 297.71 155.22 297.095 155.505C296.495 155.79 295.843 156 295.138 156.135C294.448 156.285 293.683 156.36 292.843 156.36C291.913 156.36 291.043 156.233 290.233 155.977C289.438 155.722 288.748 155.34 288.163 154.83C287.578 154.305 287.113 153.66 286.768 152.895C286.438 152.13 286.273 151.23 286.273 150.195C286.273 149.31 286.505 148.447 286.97 147.607C287.45 146.767 288.23 146.017 289.31 145.357C290.405 144.682 291.838 144.127 293.608 143.692C295.393 143.257 297.59 143.01 300.2 142.95V141.42C300.2 139.77 299.848 138.54 299.143 137.73C298.438 136.92 297.403 136.515 296.038 136.515C295.108 136.515 294.328 136.635 293.698 136.875C293.068 137.1 292.52 137.347 292.055 137.617C291.59 137.887 291.178 138.142 290.818 138.382C290.458 138.607 290.075 138.72 289.67 138.72C289.34 138.72 289.055 138.637 288.815 138.472C288.59 138.292 288.403 138.075 288.253 137.82L287.375 136.245ZM330.317 133.05L317.672 162.525C317.507 162.87 317.304 163.14 317.064 163.335C316.839 163.53 316.487 163.628 316.007 163.628H312.429L316.659 154.447L307.299 133.05H311.507C311.912 133.05 312.219 133.147 312.429 133.342C312.654 133.522 312.819 133.74 312.924 133.995L318.392 147.022C318.527 147.397 318.647 147.772 318.752 148.147C318.872 148.507 318.984 148.882 319.089 149.272C319.209 148.882 319.329 148.5 319.449 148.125C319.569 147.75 319.704 147.375 319.854 147L325.097 133.995C325.202 133.725 325.374 133.5 325.614 133.32C325.869 133.14 326.147 133.05 326.447 133.05H330.317ZM371.293 123.6V156H366.028V141.577H349.76V156H344.473V123.6H349.76V137.775H366.028V123.6H371.293ZM389.761 145.965C388.036 146.025 386.581 146.167 385.396 146.392C384.211 146.602 383.251 146.88 382.516 147.225C381.781 147.555 381.248 147.952 380.918 148.417C380.603 148.882 380.446 149.392 380.446 149.947C380.446 150.487 380.528 150.952 380.693 151.342C380.873 151.717 381.113 152.032 381.413 152.287C381.728 152.527 382.088 152.707 382.493 152.827C382.913 152.932 383.371 152.985 383.866 152.985C385.126 152.985 386.206 152.752 387.106 152.287C388.021 151.807 388.906 151.117 389.761 150.218V145.965ZM376.936 136.245C379.531 133.83 382.621 132.622 386.206 132.622C387.526 132.622 388.696 132.84 389.716 133.275C390.751 133.695 391.613 134.295 392.303 135.075C393.008 135.855 393.541 136.785 393.901 137.865C394.276 138.93 394.463 140.115 394.463 141.42V156H392.303C391.838 156 391.486 155.932 391.246 155.797C391.006 155.647 390.803 155.355 390.638 154.92L390.166 153.052C389.581 153.577 389.003 154.05 388.433 154.47C387.863 154.875 387.271 155.22 386.656 155.505C386.056 155.79 385.403 156 384.698 156.135C384.008 156.285 383.243 156.36 382.403 156.36C381.473 156.36 380.603 156.233 379.793 155.977C378.998 155.722 378.308 155.34 377.723 154.83C377.138 154.305 376.673 153.66 376.328 152.895C375.998 152.13 375.833 151.23 375.833 150.195C375.833 149.31 376.066 148.447 376.531 147.607C377.011 146.767 377.791 146.017 378.871 145.357C379.966 144.682 381.398 144.127 383.168 143.692C384.953 143.257 387.151 143.01 389.761 142.95V141.42C389.761 139.77 389.408 138.54 388.703 137.73C387.998 136.92 386.963 136.515 385.598 136.515C384.668 136.515 383.888 136.635 383.258 136.875C382.628 137.1 382.081 137.347 381.616 137.617C381.151 137.887 380.738 138.142 380.378 138.382C380.018 138.607 379.636 138.72 379.231 138.72C378.901 138.72 378.616 138.637 378.376 138.472C378.151 138.292 377.963 138.075 377.813 137.82L376.936 136.245ZM404.698 137.302C405.418 135.847 406.288 134.707 407.308 133.882C408.328 133.042 409.55 132.622 410.975 132.622C411.47 132.622 411.935 132.682 412.37 132.802C412.805 132.907 413.195 133.072 413.54 133.297L413.203 136.942C413.143 137.197 413.045 137.377 412.91 137.482C412.79 137.572 412.625 137.617 412.415 137.617C412.19 137.617 411.868 137.58 411.448 137.505C411.028 137.415 410.585 137.37 410.12 137.37C409.445 137.37 408.845 137.467 408.32 137.662C407.81 137.857 407.345 138.142 406.925 138.517C406.52 138.892 406.16 139.35 405.845 139.89C405.53 140.43 405.238 141.045 404.968 141.735V156H400.13V133.05H402.943C403.453 133.05 403.805 133.147 404 133.342C404.195 133.522 404.33 133.845 404.405 134.31L404.698 137.302ZM430.642 138.697C429.967 137.827 429.224 137.22 428.414 136.875C427.604 136.53 426.727 136.357 425.782 136.357C423.892 136.357 422.414 137.055 421.349 138.45C420.284 139.83 419.752 141.877 419.752 144.592C419.752 146.002 419.872 147.21 420.112 148.215C420.352 149.205 420.697 150.015 421.147 150.645C421.597 151.275 422.144 151.732 422.789 152.017C423.434 152.302 424.162 152.445 424.972 152.445C426.202 152.445 427.259 152.182 428.144 151.657C429.044 151.117 429.877 150.36 430.642 149.385V138.697ZM435.479 122.7V156H432.554C431.909 156 431.497 155.692 431.317 155.077L430.889 152.58C429.929 153.705 428.834 154.612 427.604 155.302C426.389 155.992 424.972 156.338 423.352 156.338C422.062 156.338 420.892 156.082 419.842 155.572C418.792 155.047 417.892 154.29 417.142 153.3C416.392 152.31 415.807 151.087 415.387 149.632C414.982 148.162 414.779 146.482 414.779 144.592C414.779 142.882 415.004 141.3 415.454 139.845C415.919 138.39 416.579 137.13 417.434 136.065C418.289 134.985 419.324 134.145 420.539 133.545C421.769 132.93 423.142 132.622 424.657 132.622C426.007 132.622 427.154 132.84 428.099 133.275C429.044 133.695 429.892 134.287 430.642 135.052V122.7H435.479Z" fill="#BF1922"/>
</svg>
